<mxfile host="app.diagrams.net" modified="2024-03-18T19:48:24.595Z" agent="Mozilla/5.0 (Macintosh; Intel Mac OS X 10_15_7) AppleWebKit/537.36 (KHTML, like Gecko) Chrome/122.0.0.0 Safari/537.36" etag="dxwks0CcWAv4BTecbiQZ" version="23.1.5" type="device">
  <diagram id="ad-6kf6j1xaBgm1jNbVA" name="Page-1">
    <mxGraphModel dx="884" dy="541" grid="1" gridSize="10" guides="1" tooltips="1" connect="1" arrows="1" fold="1" page="1" pageScale="1" pageWidth="1100" pageHeight="850" math="0" shadow="0">
      <root>
        <mxCell id="0" />
        <mxCell id="1" parent="0" />
        <mxCell id="Znw-S5o0BGjcDrDcnTOf-11" value="" style="rounded=0;whiteSpace=wrap;html=1;fillColor=#f8cecc;strokeColor=none;glass=1;" vertex="1" parent="1">
          <mxGeometry x="565" y="390" width="40" height="130" as="geometry" />
        </mxCell>
        <mxCell id="Znw-S5o0BGjcDrDcnTOf-13" value="" style="rounded=0;whiteSpace=wrap;html=1;fillColor=#f8cecc;strokeColor=none;glass=1;" vertex="1" parent="1">
          <mxGeometry x="665" y="390" width="40" height="130" as="geometry" />
        </mxCell>
        <mxCell id="Znw-S5o0BGjcDrDcnTOf-14" value="" style="rounded=0;whiteSpace=wrap;html=1;fillColor=#fff2cc;strokeColor=none;glass=1;" vertex="1" parent="1">
          <mxGeometry x="780" y="390" width="40" height="130" as="geometry" />
        </mxCell>
        <mxCell id="Znw-S5o0BGjcDrDcnTOf-15" value="" style="rounded=0;whiteSpace=wrap;html=1;fillColor=#fff2cc;strokeColor=none;glass=1;" vertex="1" parent="1">
          <mxGeometry x="890" y="390" width="40" height="130" as="geometry" />
        </mxCell>
        <mxCell id="Znw-S5o0BGjcDrDcnTOf-9" value="" style="rounded=0;whiteSpace=wrap;html=1;fillColor=#d5e8d4;strokeColor=none;glass=1;" vertex="1" parent="1">
          <mxGeometry x="370" y="390" width="40" height="130" as="geometry" />
        </mxCell>
        <mxCell id="Znw-S5o0BGjcDrDcnTOf-10" value="" style="rounded=0;whiteSpace=wrap;html=1;fillColor=#d5e8d4;strokeColor=none;glass=1;" vertex="1" parent="1">
          <mxGeometry x="460" y="390" width="40" height="130" as="geometry" />
        </mxCell>
        <mxCell id="Znw-S5o0BGjcDrDcnTOf-7" value="" style="rounded=0;whiteSpace=wrap;html=1;fillColor=#dae8fc;strokeColor=none;glass=1;" vertex="1" parent="1">
          <mxGeometry x="270" y="390" width="40" height="130" as="geometry" />
        </mxCell>
        <mxCell id="Znw-S5o0BGjcDrDcnTOf-6" value="" style="rounded=0;whiteSpace=wrap;html=1;fillColor=#dae8fc;strokeColor=none;glass=1;" vertex="1" parent="1">
          <mxGeometry x="180" y="390" width="40" height="130" as="geometry" />
        </mxCell>
        <mxCell id="5_aQtZeD6gLi4RiHxJ7z-1" value="Experiment&lt;br&gt;Control" style="rounded=1;whiteSpace=wrap;html=1;fillColor=#dae8fc;strokeColor=#6c8ebf;opacity=50;glass=0;sketch=0;shadow=0;" parent="1" vertex="1">
          <mxGeometry x="160" y="260" width="170" height="40" as="geometry" />
        </mxCell>
        <mxCell id="5_aQtZeD6gLi4RiHxJ7z-2" value="Experiment&lt;br&gt;Steering" style="rounded=1;whiteSpace=wrap;html=1;fillColor=#d5e8d4;strokeColor=#82b366;opacity=50;glass=0;sketch=0;shadow=0;" parent="1" vertex="1">
          <mxGeometry x="350" y="260" width="170" height="40" as="geometry" />
        </mxCell>
        <mxCell id="5_aQtZeD6gLi4RiHxJ7z-3" value="Multi-Experiment&lt;br&gt;Workflow" style="rounded=1;whiteSpace=wrap;html=1;fillColor=#fff2cc;strokeColor=#d6b656;opacity=50;glass=0;sketch=0;shadow=0;" parent="1" vertex="1">
          <mxGeometry x="750" y="260" width="210" height="40" as="geometry" />
        </mxCell>
        <mxCell id="5_aQtZeD6gLi4RiHxJ7z-4" value="Design of Experiments" style="rounded=1;whiteSpace=wrap;html=1;fillColor=#f8cecc;strokeColor=#b85450;opacity=50;glass=0;sketch=0;shadow=0;" parent="1" vertex="1">
          <mxGeometry x="540" y="260" width="190" height="40" as="geometry" />
        </mxCell>
        <mxCell id="5_aQtZeD6gLi4RiHxJ7z-5" value="Local&lt;br&gt;Experiment&lt;br&gt;Steering" style="rounded=0;whiteSpace=wrap;html=1;fillColor=#d5e8d4;strokeColor=#82b366;" parent="1" vertex="1">
          <mxGeometry x="350" y="340" width="80" height="50" as="geometry" />
        </mxCell>
        <mxCell id="5_aQtZeD6gLi4RiHxJ7z-6" value="Distributed&lt;br&gt;Experiment&lt;br&gt;Steering" style="rounded=0;whiteSpace=wrap;html=1;fillColor=#d5e8d4;strokeColor=#82b366;" parent="1" vertex="1">
          <mxGeometry x="440" y="340" width="80" height="50" as="geometry" />
        </mxCell>
        <mxCell id="5_aQtZeD6gLi4RiHxJ7z-7" value="Local&lt;br&gt;Design of Experiments" style="rounded=0;whiteSpace=wrap;html=1;fillColor=#f8cecc;strokeColor=#b85450;" parent="1" vertex="1">
          <mxGeometry x="540" y="340" width="90" height="50" as="geometry" />
        </mxCell>
        <mxCell id="5_aQtZeD6gLi4RiHxJ7z-8" value="Distributed&lt;br&gt;Design of Experiments" style="rounded=0;whiteSpace=wrap;html=1;fillColor=#f8cecc;strokeColor=#b85450;" parent="1" vertex="1">
          <mxGeometry x="640" y="340" width="90" height="50" as="geometry" />
        </mxCell>
        <mxCell id="5_aQtZeD6gLi4RiHxJ7z-9" value="" style="endArrow=none;dashed=1;html=1;dashPattern=1 3;strokeWidth=2;rounded=0;" parent="1" edge="1">
          <mxGeometry width="50" height="50" relative="1" as="geometry">
            <mxPoint x="110" y="320" as="sourcePoint" />
            <mxPoint x="980" y="320" as="targetPoint" />
          </mxGeometry>
        </mxCell>
        <mxCell id="5_aQtZeD6gLi4RiHxJ7z-10" value="Strategic&lt;br&gt;Patterns" style="text;html=1;align=center;verticalAlign=middle;resizable=0;points=[];autosize=1;strokeColor=none;fillColor=none;rotation=-90;fontStyle=2" parent="1" vertex="1">
          <mxGeometry x="95" y="260" width="70" height="40" as="geometry" />
        </mxCell>
        <mxCell id="5_aQtZeD6gLi4RiHxJ7z-11" value="Architectural&lt;br&gt;Patterns" style="text;html=1;align=center;verticalAlign=middle;resizable=0;points=[];autosize=1;strokeColor=none;fillColor=none;rotation=-90;fontStyle=2" parent="1" vertex="1">
          <mxGeometry x="85" y="345" width="90" height="40" as="geometry" />
        </mxCell>
        <mxCell id="zwgUW79nG19Z6aKuMaXJ-3" value="Distributed&lt;br&gt;Experiment&lt;br&gt;Control" style="rounded=0;whiteSpace=wrap;html=1;fillColor=#dae8fc;strokeColor=#6c8ebf;" parent="1" vertex="1">
          <mxGeometry x="250" y="340" width="80" height="50" as="geometry" />
        </mxCell>
        <mxCell id="zwgUW79nG19Z6aKuMaXJ-4" value="Local&lt;br&gt;Experiment&lt;br&gt;Control" style="rounded=0;whiteSpace=wrap;html=1;fillColor=#dae8fc;strokeColor=#6c8ebf;" parent="1" vertex="1">
          <mxGeometry x="160" y="340" width="80" height="50" as="geometry" />
        </mxCell>
        <mxCell id="5LGaE8H8o-Ld7-x1HnNb-1" value="Distributed&lt;br&gt;Multi-Experiment&lt;br&gt;Workflow" style="rounded=0;whiteSpace=wrap;html=1;fillColor=#fff2cc;strokeColor=#d6b656;" parent="1" vertex="1">
          <mxGeometry x="860" y="340" width="100" height="50" as="geometry" />
        </mxCell>
        <mxCell id="5LGaE8H8o-Ld7-x1HnNb-2" value="Local&lt;br&gt;Multi-Experiment&lt;br&gt;Workflow" style="rounded=0;whiteSpace=wrap;html=1;fillColor=#fff2cc;strokeColor=#d6b656;" parent="1" vertex="1">
          <mxGeometry x="750" y="340" width="100" height="50" as="geometry" />
        </mxCell>
        <mxCell id="xjqtRQXjf6811xD_2Nou-2" value="" style="endArrow=block;html=1;rounded=0;endFill=0;exitX=0.5;exitY=0;exitDx=0;exitDy=0;entryX=0.25;entryY=1;entryDx=0;entryDy=0;" parent="1" source="zwgUW79nG19Z6aKuMaXJ-4" target="5_aQtZeD6gLi4RiHxJ7z-1" edge="1">
          <mxGeometry width="50" height="50" relative="1" as="geometry">
            <mxPoint x="430" y="520" as="sourcePoint" />
            <mxPoint x="290" y="480" as="targetPoint" />
          </mxGeometry>
        </mxCell>
        <mxCell id="xjqtRQXjf6811xD_2Nou-3" value="" style="endArrow=block;html=1;rounded=0;endFill=0;exitX=0.5;exitY=0;exitDx=0;exitDy=0;entryX=0.75;entryY=1;entryDx=0;entryDy=0;" parent="1" source="zwgUW79nG19Z6aKuMaXJ-3" target="5_aQtZeD6gLi4RiHxJ7z-1" edge="1">
          <mxGeometry width="50" height="50" relative="1" as="geometry">
            <mxPoint x="210" y="350" as="sourcePoint" />
            <mxPoint x="240" y="300" as="targetPoint" />
          </mxGeometry>
        </mxCell>
        <mxCell id="xjqtRQXjf6811xD_2Nou-4" value="" style="endArrow=block;html=1;rounded=0;endFill=0;exitX=0.5;exitY=0;exitDx=0;exitDy=0;entryX=0.25;entryY=1;entryDx=0;entryDy=0;" parent="1" source="5_aQtZeD6gLi4RiHxJ7z-5" target="5_aQtZeD6gLi4RiHxJ7z-2" edge="1">
          <mxGeometry width="50" height="50" relative="1" as="geometry">
            <mxPoint x="210" y="350" as="sourcePoint" />
            <mxPoint x="213" y="310" as="targetPoint" />
          </mxGeometry>
        </mxCell>
        <mxCell id="xjqtRQXjf6811xD_2Nou-5" value="" style="endArrow=block;html=1;rounded=0;endFill=0;exitX=0.5;exitY=0;exitDx=0;exitDy=0;entryX=0.75;entryY=1;entryDx=0;entryDy=0;" parent="1" source="5_aQtZeD6gLi4RiHxJ7z-6" target="5_aQtZeD6gLi4RiHxJ7z-2" edge="1">
          <mxGeometry width="50" height="50" relative="1" as="geometry">
            <mxPoint x="300" y="350" as="sourcePoint" />
            <mxPoint x="298" y="310" as="targetPoint" />
          </mxGeometry>
        </mxCell>
        <mxCell id="xjqtRQXjf6811xD_2Nou-6" value="" style="endArrow=block;html=1;rounded=0;endFill=0;entryX=0.25;entryY=1;entryDx=0;entryDy=0;" parent="1" source="5_aQtZeD6gLi4RiHxJ7z-7" target="5_aQtZeD6gLi4RiHxJ7z-4" edge="1">
          <mxGeometry width="50" height="50" relative="1" as="geometry">
            <mxPoint x="400" y="350" as="sourcePoint" />
            <mxPoint x="403" y="310" as="targetPoint" />
          </mxGeometry>
        </mxCell>
        <mxCell id="xjqtRQXjf6811xD_2Nou-7" value="" style="endArrow=block;html=1;rounded=0;endFill=0;exitX=0.5;exitY=0;exitDx=0;exitDy=0;entryX=0.75;entryY=1;entryDx=0;entryDy=0;" parent="1" source="5_aQtZeD6gLi4RiHxJ7z-8" target="5_aQtZeD6gLi4RiHxJ7z-4" edge="1">
          <mxGeometry width="50" height="50" relative="1" as="geometry">
            <mxPoint x="490" y="350" as="sourcePoint" />
            <mxPoint x="488" y="310" as="targetPoint" />
          </mxGeometry>
        </mxCell>
        <mxCell id="xjqtRQXjf6811xD_2Nou-8" value="" style="endArrow=block;html=1;rounded=0;endFill=0;entryX=0.25;entryY=1;entryDx=0;entryDy=0;exitX=0.5;exitY=0;exitDx=0;exitDy=0;" parent="1" source="5LGaE8H8o-Ld7-x1HnNb-2" target="5_aQtZeD6gLi4RiHxJ7z-3" edge="1">
          <mxGeometry width="50" height="50" relative="1" as="geometry">
            <mxPoint x="596" y="350" as="sourcePoint" />
            <mxPoint x="598" y="310" as="targetPoint" />
          </mxGeometry>
        </mxCell>
        <mxCell id="xjqtRQXjf6811xD_2Nou-9" value="" style="endArrow=block;html=1;rounded=0;endFill=0;exitX=0.5;exitY=0;exitDx=0;exitDy=0;entryX=0.75;entryY=1;entryDx=0;entryDy=0;" parent="1" source="5LGaE8H8o-Ld7-x1HnNb-1" target="5_aQtZeD6gLi4RiHxJ7z-3" edge="1">
          <mxGeometry width="50" height="50" relative="1" as="geometry">
            <mxPoint x="695" y="350" as="sourcePoint" />
            <mxPoint x="693" y="310" as="targetPoint" />
          </mxGeometry>
        </mxCell>
        <mxCell id="Znw-S5o0BGjcDrDcnTOf-1" value="" style="endArrow=none;dashed=1;html=1;strokeWidth=2;rounded=0;endSize=4;startSize=4;jumpSize=8;" edge="1" parent="1">
          <mxGeometry width="50" height="50" relative="1" as="geometry">
            <mxPoint x="110" y="410" as="sourcePoint" />
            <mxPoint x="980" y="410" as="targetPoint" />
          </mxGeometry>
        </mxCell>
        <mxCell id="Znw-S5o0BGjcDrDcnTOf-2" value="IRI Execution&lt;br&gt;Patterns" style="text;html=1;align=center;verticalAlign=middle;resizable=0;points=[];autosize=1;strokeColor=none;fillColor=none;rotation=-90;fontStyle=2" vertex="1" parent="1">
          <mxGeometry x="85" y="450" width="90" height="40" as="geometry" />
        </mxCell>
        <mxCell id="Znw-S5o0BGjcDrDcnTOf-3" value="Time-Sensitive" style="rounded=1;whiteSpace=wrap;html=1;fillColor=#e1d5e7;strokeColor=#9673a6;" vertex="1" parent="1">
          <mxGeometry x="160" y="430" width="800" height="20" as="geometry" />
        </mxCell>
        <mxCell id="Znw-S5o0BGjcDrDcnTOf-4" value="Data Integration-Sensitive" style="rounded=1;whiteSpace=wrap;html=1;fillColor=#ffe6cc;strokeColor=#d79b00;" vertex="1" parent="1">
          <mxGeometry x="160" y="460" width="800" height="20" as="geometry" />
        </mxCell>
        <mxCell id="Znw-S5o0BGjcDrDcnTOf-5" value="Long-Term Campaign" style="rounded=1;whiteSpace=wrap;html=1;fillColor=#f5f5f5;strokeColor=#666666;fontColor=#333333;" vertex="1" parent="1">
          <mxGeometry x="160" y="490" width="800" height="20" as="geometry" />
        </mxCell>
      </root>
    </mxGraphModel>
  </diagram>
</mxfile>
